<svg width="41" height="49" viewBox="0 0 41 49" fill="none" xmlns="http://www.w3.org/2000/svg">
<path d="M25.8901 48.0544C27.4923 48.0544 28.8896 46.6608 28.8896 45.0627V38.0759H30.8924C32.0942 38.0759 32.8951 37.2767 32.8951 36.0783V16.123H8.88086V36.0785C8.88086 37.277 9.68201 38.0761 10.8836 38.0761H12.8866V45.0629C12.8866 46.661 14.2835 48.0546 15.8861 48.0546C17.4881 48.0546 18.8852 46.661 18.8852 45.0629V38.0761H22.8909V45.0629C22.8907 46.6608 24.2879 48.0544 25.8901 48.0544Z" fill="#A6D864"/>
<path d="M37.8979 36.0786C39.5001 36.0786 40.8971 34.6852 40.8971 33.0869V19.1134C40.8971 17.5238 39.5002 16.123 37.8979 16.123C36.2955 16.123 34.8984 17.5239 34.8984 19.1134V33.0869C34.8984 34.685 36.2954 36.0786 37.8979 36.0786Z" fill="#A6D864"/>
<path d="M3.87904 36.0786C5.48143 36.0786 6.87848 34.6852 6.87848 33.0869V19.1134C6.87848 17.5238 5.48162 16.123 3.87904 16.123C2.27684 16.123 0.879883 17.5239 0.879883 19.1134V33.0869C0.879976 34.685 2.27684 36.0786 3.87904 36.0786Z" fill="#A6D864"/>
<path d="M30.4925 0.561167C30.0921 0.159298 29.496 0.159298 29.0956 0.561167L26.4094 3.23143L26.2855 3.35483C24.6927 2.55931 22.9069 2.16202 20.9183 2.15819C20.9085 2.15819 20.8989 2.15791 20.8891 2.15791H20.8889C20.8788 2.15791 20.8695 2.15819 20.8595 2.15819C18.8709 2.16202 17.0852 2.55931 15.4925 3.35483L15.3683 3.23143L12.6821 0.561167C12.2815 0.159298 11.6857 0.159298 11.2853 0.561167C10.8846 0.960796 10.8846 1.55394 11.2853 1.95329L13.8837 4.54541C13.0464 5.10299 12.2872 5.78528 11.627 6.56568C10.0464 8.43434 9.03814 10.8664 8.89953 13.5014C8.89821 13.5289 8.8955 13.556 8.89428 13.5834C8.88577 13.7628 8.88184 13.9432 8.88184 14.1243H32.896C32.896 13.9433 32.8917 13.7629 32.8835 13.5834C32.8822 13.556 32.8795 13.5289 32.8779 13.5014C32.7396 10.8664 31.7311 8.43425 30.1505 6.56586C29.4906 5.78546 28.7311 5.10317 27.8938 4.5456L30.4925 1.95347C30.8932 1.55394 30.8932 0.960889 30.4925 0.561167ZM15.8831 10.6365C15.0545 10.6365 14.3827 9.96649 14.3827 9.13997C14.3827 8.31346 15.0544 7.64349 15.8831 7.64349C16.7117 7.64349 17.3835 8.31346 17.3835 9.13997C17.3835 9.96649 16.7117 10.6365 15.8831 10.6365ZM25.8946 10.6365C25.0661 10.6365 24.3943 9.96649 24.3943 9.13997C24.3943 8.31346 25.066 7.64349 25.8946 7.64349C26.7232 7.64349 27.395 8.31346 27.395 9.13997C27.395 9.96649 26.7233 10.6365 25.8946 10.6365Z" fill="#A6D864"/>
</svg>
