<svg width="164" height="165" viewBox="0 0 164 165" fill="none" xmlns="http://www.w3.org/2000/svg">
<path d="M120.971 39.7648C109.658 29.4275 94.7029 24.0074 79.3942 24.6968C64.0855 25.3863 49.6777 32.1289 39.3403 43.4413C29.003 54.7537 23.5828 69.7092 24.2723 85.0179C24.9618 100.327 31.7043 114.734 43.0167 125.072L44.3858 123.574C33.4707 113.599 26.9649 99.6976 26.2997 84.9266C25.6344 70.1556 30.8642 55.7253 40.8385 44.8103C50.8127 33.8952 64.7145 27.3894 79.4855 26.7242C94.2565 26.0589 108.687 31.2887 119.602 41.263L120.971 39.7648Z" fill="#E0E8E6"/>
<circle cx="121.546" cy="41.4194" r="2.39961" fill="#C4C4C4"/>
<circle cx="44.2746" cy="125.032" r="2.39961" fill="#C4C4C4"/>
</svg>
