<svg width="41" height="41" viewBox="0 0 41 41" fill="none" xmlns="http://www.w3.org/2000/svg">
<path d="M20.971 0.472168C20.254 0.472168 19.5375 0.510612 18.8246 0.587251C18.1712 0.653821 17.5258 0.762995 16.8891 0.89547C16.7658 0.921182 16.6425 0.948309 16.5193 0.976685C12.7677 1.82861 9.34211 3.74175 6.65327 6.48668C6.40323 6.74231 6.15845 7.00551 5.91909 7.2762C-1.34427 15.5931 -0.472602 28.2081 7.86608 35.4526C15.8493 42.3883 27.866 41.9268 35.2909 34.3994C35.5414 34.1438 35.7861 33.8806 36.0251 33.6099C39.2305 29.9691 40.997 25.2884 40.9941 20.4431C40.9941 9.41334 32.0295 0.472085 20.971 0.472168ZM7.54296 7.48523C7.64841 7.37605 7.75787 7.27154 7.86533 7.16569C7.98947 7.04387 8.11295 6.92138 8.23976 6.80355C8.35122 6.6997 8.46602 6.59985 8.58015 6.49866C8.70897 6.38483 8.83712 6.27099 8.96927 6.16115C9.0854 6.06329 9.20487 5.96943 9.32368 5.8749C9.45716 5.76839 9.59065 5.66188 9.72814 5.55936C9.84961 5.46816 9.97309 5.37962 10.0972 5.29308C10.2354 5.19456 10.3742 5.09337 10.515 5.0015C10.6412 4.91629 10.7687 4.83375 10.8968 4.75187C11.0397 4.66066 11.1832 4.5708 11.328 4.48559C11.4584 4.40795 11.5896 4.33156 11.7218 4.25659C11.8695 4.17271 12.0179 4.09083 12.1669 4.01094C12.3004 3.93996 12.4339 3.87048 12.5674 3.80258C12.7196 3.72602 12.8731 3.65213 13.0273 3.57957C13.1608 3.51633 13.2996 3.45309 13.4371 3.39317C13.5939 3.3266 13.7528 3.26003 13.9116 3.19346C14.0498 3.13688 14.1873 3.08163 14.3268 3.02837C14.4883 2.96713 14.6518 2.90988 14.8153 2.85263C14.9548 2.80403 15.0943 2.75543 15.2358 2.7095C15.402 2.65624 15.5695 2.60698 15.7377 2.55839C15.8786 2.51778 16.018 2.47584 16.1595 2.43789C16.2136 2.42392 16.2677 2.4126 16.3217 2.39862C14.3461 4.31192 12.88 6.68647 12.0562 9.30725C10.472 8.89052 8.9384 8.30187 7.48289 7.5518C7.50492 7.5285 7.5236 7.5052 7.54296 7.48523ZM6.58319 8.557C8.18645 9.42341 9.88657 10.0983 11.6484 10.5674C10.7847 13.5627 10.3313 16.6608 10.3008 19.7774H2.29825C2.44367 15.6676 3.95049 11.7218 6.58319 8.557ZM6.58319 32.3291C3.95066 29.1642 2.44384 25.2185 2.29825 21.1088H10.3008C10.3313 24.2253 10.7846 27.3234 11.6484 30.3187C9.88666 30.788 8.18653 31.4628 6.58319 32.3291ZM16.1555 38.4509C16.0207 38.4169 15.8812 38.373 15.7424 38.3324C15.5735 38.2831 15.404 38.2339 15.2372 38.18C15.0963 38.1347 14.9575 38.0861 14.8187 38.0375C14.6545 37.9809 14.4903 37.923 14.3281 37.8611C14.1893 37.8085 14.0525 37.7532 13.915 37.6973C13.7554 37.6308 13.5959 37.5642 13.4377 37.4976C13.3016 37.4377 13.1661 37.376 13.0313 37.3125C12.8758 37.2393 12.7209 37.1648 12.5641 37.0875C12.4306 37.021 12.2971 36.9544 12.1636 36.8818C12.0128 36.8013 11.8633 36.7187 11.7138 36.6335C11.5803 36.5596 11.4535 36.4838 11.3246 36.4065C11.1778 36.3187 11.0336 36.2281 10.8895 36.1356C10.7627 36.055 10.6359 35.9732 10.511 35.8893C10.3689 35.7934 10.2281 35.6936 10.0886 35.5937C9.96642 35.5065 9.84428 35.4193 9.72414 35.3274C9.58598 35.2236 9.45049 35.1164 9.31567 35.0086C9.19753 34.9147 9.08006 34.8215 8.9646 34.725C8.83111 34.6145 8.70229 34.4993 8.57281 34.3848C8.45935 34.2843 8.34522 34.1851 8.23442 34.0826C8.10694 33.9641 7.98347 33.8409 7.85932 33.7191C7.75187 33.6133 7.64241 33.5087 7.53695 33.4002C7.5176 33.3796 7.49891 33.3583 7.47955 33.3383C8.93498 32.5879 10.4686 31.999 12.0528 31.5822C12.8768 34.2029 14.3429 36.5774 16.3184 38.4908C16.2643 38.4769 16.2096 38.4655 16.1555 38.4509ZM20.3036 39.0301C17.4477 38.6253 14.9441 35.6523 13.369 31.262C15.6463 30.7534 17.9702 30.4806 20.3036 30.4479V39.0301ZM20.3036 29.1165C17.8283 29.1489 15.3634 29.4422 12.9499 29.9912C12.1118 27.1031 11.6697 24.1151 11.6357 21.1088H20.3036V29.1165ZM20.3036 19.7774H11.6357C11.6696 16.771 12.1117 13.783 12.9499 10.8949C15.3634 11.4439 17.8284 11.7371 20.3036 11.7697V19.7774ZM20.3036 10.4383C17.9701 10.4058 15.6463 10.133 13.369 9.62412C14.9441 5.23383 17.4477 2.26082 20.3036 1.85607V10.4383ZM35.359 8.557C37.9915 11.7219 39.4983 15.6677 39.6439 19.7774H31.6414C31.6108 16.6608 31.1576 13.5627 30.2938 10.5674C32.0555 10.098 33.7556 9.42324 35.359 8.557ZM25.7813 2.43457C25.9215 2.46918 26.0609 2.51312 26.1998 2.55373C26.3686 2.60299 26.5382 2.65225 26.705 2.70617C26.8458 2.75144 26.9847 2.80004 27.1235 2.84863C27.2877 2.90522 27.4519 2.96313 27.6141 3.02504C27.7529 3.07763 27.8897 3.13288 28.0272 3.1888C28.1867 3.25537 28.3462 3.32194 28.5044 3.38851C28.6406 3.44843 28.7761 3.51009 28.9109 3.57358C29.0664 3.6468 29.2213 3.72136 29.3781 3.79858C29.5116 3.86515 29.6451 3.93172 29.7786 4.00429C29.9294 4.08484 30.0789 4.16738 30.2284 4.25259C30.3619 4.32648 30.4887 4.40237 30.6175 4.47959C30.7644 4.56747 30.9085 4.658 31.0527 4.75053C31.1795 4.83108 31.3063 4.91296 31.4311 4.99684C31.5733 5.0927 31.7135 5.19189 31.8529 5.29175C31.9758 5.37895 32.0979 5.46683 32.2187 5.55803C32.3562 5.66121 32.491 5.76839 32.6265 5.87623C32.744 5.96943 32.8621 6.06263 32.9776 6.15982C33.1111 6.27033 33.2399 6.38549 33.3694 6.49999C33.4828 6.60051 33.597 6.6997 33.7077 6.80222C33.8352 6.92071 33.9587 7.04387 34.0828 7.16569C34.1903 7.27154 34.2998 7.37605 34.4052 7.48456C34.4246 7.5052 34.4433 7.5265 34.4626 7.54647C33.0072 8.29688 31.4736 8.88577 29.8894 9.30259C29.0637 6.68156 27.5958 4.30726 25.6184 2.39462C25.6725 2.4086 25.7272 2.41992 25.7813 2.43457ZM21.6385 1.85607C24.4945 2.26082 26.998 5.23383 28.5732 9.62412C26.2959 10.1327 23.972 10.4056 21.6385 10.4383V1.85607ZM21.6385 11.7697C24.1139 11.7372 26.5788 11.444 28.9923 10.8949C29.8304 13.783 30.2725 16.771 30.3065 19.7774H21.6385V11.7697ZM21.6385 21.1088H30.3065C30.2725 24.1151 29.8305 27.1031 28.9923 29.9912C26.5788 29.4422 24.1139 29.149 21.6385 29.1165V21.1088ZM21.6385 39.0301V30.4479C23.972 30.4803 26.2959 30.7532 28.5732 31.262C26.998 35.6523 24.4945 38.6253 21.6385 39.0301ZM34.3992 33.4009C34.2938 33.5094 34.185 33.6139 34.0775 33.7198C33.9534 33.8416 33.8292 33.9647 33.7017 34.0832C33.591 34.1864 33.4768 34.283 33.3634 34.3861C33.2339 34.5006 33.1051 34.6151 32.9729 34.7256C32.8561 34.8228 32.7373 34.9167 32.6185 35.0112C32.485 35.1177 32.3515 35.2243 32.214 35.3268C32.0926 35.418 31.9691 35.5065 31.8449 35.593C31.7068 35.6916 31.568 35.7928 31.4271 35.8846C31.301 35.9698 31.1735 36.0524 31.0454 36.1336C30.9025 36.2255 30.7586 36.3143 30.6135 36.3999C30.48 36.4778 30.3526 36.5536 30.2211 36.6289C30.0733 36.7128 29.9247 36.7946 29.7752 36.8745C29.6417 36.9455 29.5082 37.015 29.3748 37.0829C29.2226 37.1594 29.0691 37.2333 28.9149 37.3059C28.7814 37.3691 28.6426 37.4324 28.5051 37.4923C28.3482 37.5589 28.1894 37.6254 28.0305 37.692C27.8924 37.7479 27.7549 37.8038 27.6161 37.8564C27.4532 37.9183 27.2897 37.9763 27.1255 38.0328C26.9867 38.0814 26.8479 38.13 26.707 38.1753C26.5402 38.2292 26.3733 38.2785 26.2031 38.3271C26.0636 38.3684 25.9235 38.4096 25.7826 38.4476C25.7286 38.4615 25.6745 38.4729 25.6204 38.4868C27.596 36.5735 29.0622 34.199 29.886 31.5782C31.4702 31.9949 33.0038 32.5836 34.4593 33.3337C34.4373 33.3576 34.4186 33.3809 34.3992 33.4009ZM35.359 32.3291C33.7557 31.4627 32.0556 30.7879 30.2938 30.3187C31.1575 27.3234 31.6108 24.2253 31.6414 21.1088H39.6439C39.4986 25.2185 37.9917 29.1643 35.359 32.3291Z" fill="black"/>
</svg>
