<svg width="41" height="40" viewBox="0 0 41 40" fill="none" xmlns="http://www.w3.org/2000/svg">
<path d="M38.6635 29.6218C38.4347 29.4463 38.1361 29.3901 37.8432 29.4677L34.5924 30.3292C34.0879 30.4628 33.7075 30.9632 33.7075 31.4932V35.5715C33.4453 35.4615 33.1529 35.3997 32.8445 35.3997C31.7225 35.3997 30.8096 36.2141 30.8096 37.2151C30.8096 38.2161 31.7225 39.0305 32.8445 39.0305C33.9665 39.0305 34.8793 38.2161 34.8793 37.2151C34.8793 37.1898 34.8793 33.5714 34.8793 33.5714L38.144 32.7053C38.6485 32.5717 39.029 32.0713 39.029 31.5413V30.3913C39.029 30.0803 38.8958 29.8 38.6635 29.6218ZM32.8445 37.8616C32.3767 37.8616 31.9814 37.5655 31.9814 37.215C31.9814 36.8646 32.3767 36.5685 32.8445 36.5685C33.3122 36.5685 33.7075 36.8646 33.7075 37.215C33.7074 37.5655 33.3122 37.8616 32.8445 37.8616ZM37.8297 31.579L34.8793 32.3618L34.8789 31.4989C34.8811 31.4867 34.895 31.4652 34.9065 31.4552L37.8571 30.6734L37.8574 31.5353C37.8551 31.5476 37.8413 31.5691 37.8297 31.579Z" fill="black"/>
<path d="M39.3094 11.3442C39.1626 11.0566 38.8097 10.9423 38.5214 11.0886C38.233 11.235 38.1183 11.5869 38.2651 11.8745C40.3485 15.957 40.3485 22.5997 38.2651 26.6821C38.1183 26.9697 38.233 27.3216 38.5214 27.468C38.6065 27.5113 38.6973 27.5317 38.7867 27.5317C39.0001 27.5317 39.2058 27.415 39.3093 27.2123C40.3957 25.0834 40.994 22.2658 40.994 19.2783C40.994 16.2907 40.3958 13.4731 39.3094 11.3442Z" fill="black"/>
<path d="M36.6601 23.819C36.7453 23.8623 36.836 23.8827 36.9255 23.8827C37.1388 23.8827 37.3447 23.7659 37.4481 23.5631C38.6742 21.1599 38.6742 17.3947 37.4481 14.9914C37.3013 14.7038 36.9485 14.5891 36.6601 14.7356C36.3718 14.882 36.2569 15.2339 36.4037 15.5215C37.4602 17.5925 37.4602 20.9621 36.4037 23.033C36.2569 23.3207 36.3718 23.6726 36.6601 23.819Z" fill="black"/>
<path d="M31.2227 9.07562C28.4912 6.35006 24.8586 4.84912 20.994 4.84912C17.1295 4.84912 13.4964 6.35006 10.7637 9.07562C5.1256 14.7015 5.1256 23.8556 10.7639 29.4817C13.1441 31.8547 16.2968 33.3331 19.641 33.6446C20.0888 33.6863 20.5369 33.7069 20.9842 33.7069C23.8337 33.7069 26.6416 32.8682 29.0115 31.2905C29.2807 31.1112 29.3532 30.7484 29.1736 30.4799C28.9938 30.2114 28.63 30.1392 28.3609 30.3183C23.1146 33.8112 16.0625 33.1116 11.5925 28.6552C6.411 23.4849 6.411 15.0723 11.5924 9.90206C14.1036 7.39733 17.4424 6.01795 20.9939 6.01795C24.5454 6.01795 27.8836 7.39725 30.3938 9.90206C35.5775 15.0724 35.5775 23.4848 30.3938 28.6551C30.165 28.8834 30.165 29.2533 30.3938 29.4816C30.6227 29.7097 30.9936 29.7097 31.2225 29.4816C36.8631 23.8557 36.8631 14.7015 31.2227 9.07562Z" fill="black"/>
<path d="M13.935 12.0543C14.1667 11.829 14.1715 11.459 13.9456 11.2279C13.7197 10.9967 13.3488 10.9921 13.1171 11.2173C10.9194 13.3539 9.70898 16.2164 9.70898 19.2774C9.70898 25.4842 14.7716 30.5338 20.9945 30.5338C27.2172 30.5338 32.2799 25.4842 32.2799 19.2774C32.2799 13.0706 27.2171 8.021 20.9944 8.021C19.0071 8.021 17.0522 8.54424 15.3408 9.53417C15.0609 9.69609 14.9656 10.0538 15.1279 10.3329C15.2903 10.6121 15.6489 10.7073 15.9287 10.5454C17.4617 9.65853 19.2133 9.18983 20.9943 9.18983C26.571 9.18983 31.1078 13.7151 31.1078 19.2775C31.1078 24.8398 26.571 29.3651 20.9943 29.3651C15.4177 29.3651 10.8807 24.8398 10.8807 19.2775C10.8808 16.5343 11.9655 13.9691 13.935 12.0543Z" fill="black"/>
<path d="M3.94684 4.30099L5.37606 5.02356L6.10114 6.45047C6.26418 6.76918 6.49036 6.93079 6.7734 6.93079H6.77504C6.97012 6.93032 7.24497 6.84632 7.44606 6.44899L8.17043 5.02356L9.59872 4.30138C9.92028 4.13946 10.0833 3.91356 10.0834 3.63008C10.0834 3.34644 9.92044 3.12055 9.59958 2.95894L8.17043 2.23644L7.44637 0.811632C7.28418 0.49145 7.05809 0.328748 6.77426 0.328125C6.77379 0.328125 6.77325 0.328125 6.77278 0.328125C6.57785 0.328125 6.30371 0.411502 6.10028 0.809061L5.37598 2.23652L3.94754 2.95862C3.54848 3.15974 3.46426 3.43387 3.46387 3.62844C3.46332 3.91138 3.62543 4.13751 3.94684 4.30099ZM6.07692 3.19255C6.18817 3.13629 6.27848 3.04613 6.33481 2.93517L6.77293 2.07179L7.21184 2.93548C7.26817 3.04636 7.3584 3.13636 7.46957 3.19255L8.33489 3.63L7.4695 4.06753C7.3584 4.12372 7.26809 4.21372 7.21176 4.3246L6.77317 5.18767L6.33465 4.3246C6.27832 4.21372 6.18809 4.12372 6.07692 4.06753L5.21153 3.63L6.07692 3.19255Z" fill="black"/>
<path d="M31.8125 5.42163H32.3956C32.7193 5.42163 32.9816 5.16024 32.9816 4.83765C32.9816 4.51505 32.7193 4.25366 32.3956 4.25366H31.8125C31.4888 4.25366 31.2266 4.51505 31.2266 4.83765C31.2266 5.16024 31.4888 5.42163 31.8125 5.42163Z" fill="black"/>
<path d="M35.0078 5.42163H35.5909C35.9146 5.42163 36.1769 5.16024 36.1769 4.83765C36.1769 4.51505 35.9146 4.25366 35.5909 4.25366H35.0078C34.6841 4.25366 34.4219 4.51505 34.4219 4.83765C34.4219 5.16024 34.6841 5.42163 35.0078 5.42163Z" fill="black"/>
<path d="M33.7012 7.3064C34.0248 7.3064 34.2871 7.04495 34.2871 6.72229V6.14099C34.2871 5.81833 34.0248 5.55688 33.7012 5.55688C33.3775 5.55688 33.1152 5.81833 33.1152 6.14099V6.72229C33.1152 7.04487 33.3776 7.3064 33.7012 7.3064Z" fill="black"/>
<path d="M33.7012 4.11853C34.0248 4.11853 34.2871 3.85707 34.2871 3.53438V2.95304C34.2871 2.63036 34.0248 2.3689 33.7012 2.3689C33.3775 2.3689 33.1152 2.63036 33.1152 2.95304V3.53438C33.1152 3.85707 33.3776 4.11853 33.7012 4.11853Z" fill="black"/>
<path d="M10.1758 33.1343H9.59277C9.26918 33.1343 9.00684 33.3957 9.00684 33.7183C9.00684 34.0409 9.26918 34.3022 9.59277 34.3022H10.1758C10.4994 34.3022 10.7617 34.0409 10.7617 33.7183C10.7617 33.3957 10.4994 33.1343 10.1758 33.1343Z" fill="black"/>
<path d="M6.98052 33.1343H6.39747C6.07387 33.1343 5.81152 33.3957 5.81152 33.7183C5.81152 34.0409 6.07387 34.3022 6.39747 34.3022H6.98052C7.30412 34.3022 7.56647 34.0409 7.56647 33.7183C7.56647 33.3957 7.30412 33.1343 6.98052 33.1343Z" fill="black"/>
<path d="M8.28711 31.2476C7.96352 31.2476 7.70117 31.509 7.70117 31.8317V32.415C7.70117 32.7377 7.96352 32.9991 8.28711 32.9991C8.6107 32.9991 8.87305 32.7377 8.87305 32.415V31.8317C8.87305 31.509 8.6107 31.2476 8.28711 31.2476Z" fill="black"/>
<path d="M8.28711 34.4375C7.96352 34.4375 7.70117 34.6989 7.70117 35.0216V35.6027C7.70117 35.9253 7.96352 36.1868 8.28711 36.1868C8.6107 36.1868 8.87305 35.9253 8.87305 35.6027V35.0216C8.87305 34.699 8.6107 34.4375 8.28711 34.4375Z" fill="black"/>
<path d="M23.4131 18.3789C22.2518 18.5926 21.342 19.5019 21.342 20.4491C21.342 20.883 21.5287 21.277 21.8675 21.5582C22.1989 21.8335 22.6468 21.9787 23.1399 21.9787C23.298 21.9787 23.4609 21.9638 23.626 21.9334C24.786 21.7193 25.6947 20.81 25.6947 19.8632V14.8102C25.6947 14.7894 25.6935 14.7689 25.6914 14.7487C25.6751 14.4801 25.5539 14.2323 25.351 14.0621C25.1242 13.872 24.8171 13.7939 24.5066 13.8477L19.1463 14.7963C18.5941 14.8925 18.1614 15.3932 18.1614 15.9362V20.8594C17.8252 20.7624 17.444 20.7462 17.0496 20.819C15.8883 21.0327 14.9785 21.942 14.9785 22.8892C14.9785 23.3231 15.1652 23.7171 15.5039 23.9983C15.8354 24.2736 16.2833 24.4188 16.7763 24.4188C16.9344 24.4188 17.0973 24.4039 17.2623 24.3735C18.4236 24.1598 19.3334 23.2504 19.3334 22.3033V18.0462L24.5229 17.1277V18.419C24.187 18.3222 23.8067 18.3062 23.4131 18.3789ZM23.4131 20.7841C23.0231 20.8558 22.7462 20.767 22.6171 20.66C22.5457 20.6007 22.5139 20.5357 22.5139 20.4492C22.5139 20.111 22.9894 19.6455 23.6257 19.5283H23.626C23.7238 19.5103 23.8144 19.5024 23.8974 19.5024C24.1441 19.5024 24.3229 19.5722 24.4193 19.6521C24.4909 19.7115 24.5227 19.7766 24.5227 19.8633C24.5227 20.2012 24.0481 20.6669 23.4131 20.7841ZM17.0495 23.2242C16.6591 23.2957 16.3824 23.2071 16.2536 23.1001C16.1822 23.0408 16.1504 22.9758 16.1504 22.8893C16.1504 22.5512 16.6259 22.0856 17.2622 21.9684C17.3604 21.9504 17.4514 21.9425 17.5347 21.9425C17.7823 21.9425 17.9616 22.0123 18.0582 22.0925C18.1296 22.1518 18.1614 22.2169 18.1614 22.3034C18.1613 22.6415 17.6859 23.107 17.0495 23.2242ZM19.3332 16.8592V15.9603C19.3383 15.9547 19.3453 15.9491 19.3494 15.9477L24.5227 15.0321V15.9407L19.3332 16.8592Z" fill="black"/>
<path d="M3.72329 11.8745C3.87008 11.5869 3.75532 11.235 3.46688 11.0886C3.17844 10.9423 2.82571 11.0566 2.67891 11.3443C1.5925 13.4731 0.994141 16.2909 0.994141 19.2783C0.994141 22.2658 1.5925 25.0835 2.67891 27.2124C2.78235 27.4151 2.98813 27.5319 3.20157 27.5319C3.29102 27.5319 3.3818 27.5113 3.46688 27.4681C3.75524 27.3217 3.87008 26.9698 3.72329 26.6822C1.63984 22.5997 1.63984 15.957 3.72329 11.8745Z" fill="black"/>
<path d="M5.3256 14.7353C5.03701 14.5892 4.68436 14.7041 4.53787 14.9917C3.3142 17.3949 3.3142 21.1597 4.53787 23.5627C4.64123 23.7656 4.84709 23.8826 5.06076 23.8826C5.14998 23.8826 5.2406 23.8621 5.3256 23.8191C5.61412 23.673 5.72928 23.3211 5.58271 23.0334C4.52803 20.9623 4.52803 17.5922 5.58271 15.5211C5.7292 15.2332 5.61412 14.8815 5.3256 14.7353Z" fill="black"/>
</svg>
