<svg width="16" height="20" viewBox="0 0 16 20" fill="none" xmlns="http://www.w3.org/2000/svg">
<path d="M5.20082 19.3134C2.42608 19.2974 0.130859 13.6332 0.130859 10.7486C0.130859 6.03654 3.6657 5.00495 5.028 5.00495C5.64194 5.00495 6.29749 5.24604 6.8757 5.45939C7.28003 5.60821 7.69821 5.76184 7.93078 5.76184C8.06999 5.76184 8.39804 5.63115 8.68767 5.51649C9.30535 5.27058 10.074 4.96497 10.969 4.96497C10.9706 4.96497 10.9728 4.96497 10.9743 4.96497C11.6427 4.96497 13.6691 5.11164 14.8874 6.9412L15.1727 7.37004L14.762 7.67996C14.1753 8.12267 13.1047 8.93025 13.1047 10.5299C13.1047 12.4246 14.3172 13.1532 14.8996 13.5036C15.1567 13.6583 15.4229 13.8178 15.4229 14.1667C15.4229 14.3944 13.6051 19.2852 10.9653 19.2852C10.3193 19.2852 9.86273 19.091 9.46 18.9198C9.0525 18.7464 8.70096 18.5971 8.12009 18.5971C7.82565 18.5971 7.45333 18.7363 7.05915 18.8841C6.52048 19.0851 5.91078 19.3134 5.21896 19.3134H5.20082Z" fill="#1617DB"/>
<path d="M11.2487 0.669678C11.3174 3.14856 9.54462 4.8683 7.7739 4.76045C7.48212 2.78221 9.5444 0.669678 11.2487 0.669678Z" fill="#1617DB"/>
</svg>
