<svg width="41" height="26" viewBox="0 0 41 26" fill="none" xmlns="http://www.w3.org/2000/svg">
<path d="M35.4373 19.3932V21.0562C35.4373 22.8937 33.945 24.3821 32.1027 24.3821H4.59239C2.75004 24.3821 1.25781 22.8937 1.25781 21.0562V5.25805C1.25781 3.42048 2.75004 1.93213 4.59239 1.93213H32.1027C33.945 1.93213 35.4373 3.42048 35.4373 5.25805V6.92101H37.1046C38.0249 6.92101 38.7719 7.66601 38.7719 8.58397V17.7302C38.7719 18.6482 38.0249 19.3932 37.1046 19.3932H35.4373Z" fill="#FAFAFA"/>
<path d="M6.26025 20.6404C5.56998 20.6404 5.00977 20.0816 5.00977 19.3932V6.92104C5.00977 6.23258 5.56998 5.67383 6.26025 5.67383C6.95052 5.67383 7.51074 6.23258 7.51074 6.92104V19.3932C7.51074 20.0816 6.95052 20.6404 6.26025 20.6404Z" fill="black"/>
<path d="M11.2621 20.6404C10.5719 20.6404 10.0117 20.0816 10.0117 19.3932V6.92104C10.0117 6.23258 10.5719 5.67383 11.2621 5.67383C11.9524 5.67383 12.5126 6.23258 12.5126 6.92104V19.3932C12.5126 20.0816 11.9524 20.6404 11.2621 20.6404Z" fill="black"/>
<path d="M16.2642 20.6404C15.5739 20.6404 15.0137 20.0816 15.0137 19.3932V6.92104C15.0137 6.23258 15.5739 5.67383 16.2642 5.67383C16.9544 5.67383 17.5146 6.23258 17.5146 6.92104V19.3932C17.5146 20.0816 16.9544 20.6404 16.2642 20.6404Z" fill="black"/>
<path d="M21.2661 20.6404C20.5758 20.6404 20.0156 20.0816 20.0156 19.3932V6.92104C20.0156 6.23258 20.5758 5.67383 21.2661 5.67383C21.9564 5.67383 22.5166 6.23258 22.5166 6.92104V19.3932C22.5166 20.0816 21.9564 20.6404 21.2661 20.6404Z" fill="black"/>
<path d="M26.2681 20.6404C25.5778 20.6404 25.0176 20.0816 25.0176 19.3932V6.92104C25.0176 6.23258 25.5778 5.67383 26.2681 5.67383C26.9583 5.67383 27.5186 6.23258 27.5186 6.92104V19.3932C27.5186 20.0816 26.9583 20.6404 26.2681 20.6404Z" fill="black"/>
<path d="M31.27 20.6404C30.5798 20.6404 30.0195 20.0816 30.0195 19.3932V6.92104C30.0195 6.23258 30.5798 5.67383 31.27 5.67383C31.9603 5.67383 32.5205 6.23258 32.5205 6.92104V19.3932C32.5205 20.0816 31.9603 20.6404 31.27 20.6404Z" fill="black"/>
<path d="M32.1032 25.6295H4.59287C2.06525 25.6295 0.0078125 23.5791 0.0078125 21.0564V5.25821C0.0078125 2.73549 2.06525 0.685059 4.59287 0.685059H32.1032C34.6308 0.685059 36.6882 2.73549 36.6882 5.25821V5.67395H37.0901C38.699 5.67395 40.0078 6.97938 40.0078 8.58414V17.7304C40.0078 19.3352 38.699 20.6406 37.0901 20.6406H36.6882V21.0564C36.6882 23.5791 34.6308 25.6295 32.1032 25.6295ZM4.59287 3.1795C3.4441 3.1795 2.50875 4.11243 2.50875 5.25821V21.0564C2.50875 22.2021 3.4441 23.1351 4.59287 23.1351H32.1032C33.2519 23.1351 34.1873 22.2021 34.1873 21.0564V19.3934C34.1873 18.7049 34.7475 18.1462 35.4378 18.1462H37.0901C37.3201 18.1462 37.5069 17.9599 37.5069 17.7304V8.58414C37.5069 8.35465 37.3201 8.1684 37.0901 8.1684H35.4378C34.7475 8.1684 34.1873 7.60964 34.1873 6.92117V5.25821C34.1873 4.11243 33.2519 3.1795 32.1032 3.1795H4.59287Z" fill="black"/>
</svg>
