<svg width="41" height="41" viewBox="0 0 41 41" fill="none" xmlns="http://www.w3.org/2000/svg">
<path d="M21.8745 40.3663H18.1411C16.8795 40.3663 15.8145 39.4238 15.6645 38.172L15.2661 35.0535C14.4711 34.7958 13.7045 34.4783 12.9761 34.1076L10.4861 36.0376C9.47615 36.8172 8.05448 36.7275 7.17781 35.8282L4.55281 33.21C3.65781 32.3439 3.56781 30.9259 4.34948 29.9202L6.28448 27.435C5.91115 26.7086 5.59281 25.9439 5.33615 25.151L2.20281 24.7537C0.952813 24.6007 0.0078125 23.5385 0.0078125 22.2801V18.5565C0.0078125 17.2981 0.952813 16.2358 2.20781 16.0862L5.33448 15.6889C5.59281 14.896 5.91115 14.1313 6.28281 13.4049L4.34948 10.9213C3.56615 9.91396 3.65781 8.49432 4.56115 7.61993L7.18615 5.00175C8.05448 4.10907 9.47781 4.02097 10.4845 4.79894L12.9745 6.73058C13.7028 6.35988 14.4695 6.04237 15.2661 5.78471L15.6645 2.65951C15.8145 1.41276 16.8795 0.470215 18.1411 0.470215H21.8745C23.1361 0.470215 24.2011 1.41276 24.3511 2.6645L24.7495 5.78305C25.5461 6.04071 26.3128 6.35822 27.0411 6.72892L29.5311 4.79894C30.5428 4.01931 31.9628 4.10907 32.8395 5.01006L35.4645 7.62824C36.3595 8.49432 36.4495 9.9123 35.6678 10.918L33.7328 13.4032C34.1061 14.1296 34.4245 14.8943 34.6811 15.6873L37.8145 16.0846C39.0628 16.2358 40.0078 17.2981 40.0078 18.5565V22.2801C40.0078 23.5385 39.0628 24.6007 37.8078 24.7503L34.6811 25.1476C34.4228 25.9406 34.1045 26.7052 33.7328 27.4317L35.6678 29.9152C36.4511 30.9226 36.3595 32.3406 35.4561 33.215L32.8311 35.8331C31.9628 36.7258 30.5395 36.8172 29.5328 36.0359L27.0411 34.106C26.3128 34.4783 25.5461 34.7958 24.7511 35.0518L24.3528 38.177C24.2011 39.4238 23.1361 40.3663 21.8745 40.3663ZM12.8911 32.2874C13.0295 32.2874 13.1711 32.3223 13.2978 32.3921C14.2161 32.9041 15.2111 33.3164 16.2545 33.6156C16.5745 33.707 16.8095 33.9796 16.8511 34.3088L17.3178 37.9659C17.3678 38.3832 17.7295 38.704 18.1411 38.704H21.8745C22.2861 38.704 22.6478 38.3832 22.6961 37.9742L23.1645 34.3104C23.2061 33.9813 23.4411 33.7087 23.7611 33.6172C24.8045 33.318 25.7995 32.9058 26.7178 32.3938C27.0095 32.2309 27.3728 32.2591 27.6345 32.4636L30.5511 34.7244C30.8861 34.9837 31.3561 34.9621 31.6428 34.6678L34.2845 32.033C34.5861 31.7405 34.6095 31.2717 34.3495 30.9359L32.0828 28.0268C31.8778 27.7641 31.8495 27.4034 32.0128 27.1125C32.5261 26.1966 32.9395 25.2041 33.2395 24.1635C33.3311 23.8444 33.6045 23.61 33.9345 23.5684L37.6011 23.1029C38.0195 23.0514 38.3411 22.6907 38.3411 22.2801V18.5565C38.3411 18.1459 38.0195 17.7851 37.6095 17.7369L33.9361 17.2698C33.6061 17.2282 33.3328 16.9939 33.2411 16.6747C32.9411 15.6341 32.5278 14.6416 32.0145 13.7257C31.8511 13.4348 31.8778 13.0741 32.0845 12.8114L34.3511 9.90232C34.6128 9.56653 34.5895 9.09775 34.2961 8.81515L31.6545 6.18035C31.3628 5.8778 30.8911 5.85453 30.5545 6.11552L27.6378 8.3763C27.3728 8.58076 27.0111 8.60902 26.7195 8.44611C25.8045 7.93411 24.8095 7.52352 23.7628 7.22263C23.4428 7.1312 23.2078 6.85858 23.1661 6.52944L22.6995 2.87229C22.6478 2.45338 22.2861 2.13255 21.8745 2.13255H18.1411C17.7295 2.13255 17.3678 2.45338 17.3195 2.86232L16.8511 6.52611C16.8095 6.85526 16.5745 7.12788 16.2545 7.22097C15.2078 7.52019 14.2128 7.93245 13.2978 8.44279C13.0061 8.60736 12.6445 8.57744 12.3795 8.37463L9.46281 6.11385C9.12615 5.85287 8.65781 5.87614 8.37281 6.16871L5.73115 8.80518C5.42948 9.09775 5.40615 9.56653 5.66615 9.90232L7.93281 12.8114C8.13781 13.0741 8.16615 13.4348 8.00281 13.7257C7.48781 14.6416 7.07615 15.6341 6.77615 16.6747C6.68448 16.9939 6.41115 17.2282 6.08115 17.2698L2.41448 17.7353C1.99615 17.7851 1.67448 18.1459 1.67448 18.5565V22.2801C1.67448 22.6907 1.99615 23.0514 2.40615 23.0996L6.07948 23.5667C6.40948 23.6083 6.68281 23.8427 6.77448 24.1619C7.07448 25.2025 7.48781 26.1949 8.00115 27.1108C8.16448 27.4018 8.13781 27.7625 7.93115 28.0251L5.66448 30.9342C5.40281 31.27 5.42615 31.7388 5.71948 32.0214L8.36115 34.6562C8.65281 34.9571 9.12115 34.9804 9.46115 34.721L12.3778 32.4603C12.5295 32.3472 12.7095 32.2874 12.8911 32.2874Z" fill="black"/>
<path d="M20.0082 28.73C15.4132 28.73 11.6748 25.0013 11.6748 20.4182C11.6748 15.8351 15.4132 12.1064 20.0082 12.1064C24.6032 12.1064 28.3416 15.8351 28.3416 20.4182C28.3416 25.0013 24.6032 28.73 20.0082 28.73ZM20.0082 13.7688C16.3315 13.7688 13.3415 16.7511 13.3415 20.4182C13.3415 24.0854 16.3315 27.0676 20.0082 27.0676C23.6849 27.0676 26.6749 24.0854 26.6749 20.4182C26.6749 16.7511 23.6849 13.7688 20.0082 13.7688Z" fill="black"/>
</svg>
